<mxfile host="65bd71144e" modified="2020-10-11T16:37:59.785Z" agent="5.0 (Windows NT 10.0; Win64; x64) AppleWebKit/537.36 (KHTML, like Gecko) Code/1.50.0 Chrome/83.0.4103.122 Electron/9.2.1 Safari/537.36" etag="sozG7d_iZRhz_7xyC68o" version="13.6.5">
    <diagram id="ftzK3skFXpYELHJWYk5C" name="Page-1">
        <mxGraphModel dx="558" dy="365" grid="1" gridSize="10" guides="1" tooltips="1" connect="1" arrows="1" fold="1" page="1" pageScale="1" pageWidth="850" pageHeight="1100" math="0" shadow="0">
            <root>
                <mxCell id="0"/>
                <mxCell id="1" parent="0"/>
                <mxCell id="Rlcjg0KeT8GsmHTueJET-1" value="RgbColorSensor" style="swimlane;fontStyle=1;align=center;verticalAlign=top;childLayout=stackLayout;horizontal=1;startSize=26;horizontalStack=0;resizeParent=1;resizeParentMax=0;resizeLast=0;collapsible=1;marginBottom=0;" parent="1" vertex="1">
                    <mxGeometry x="160" y="90" width="220" height="158" as="geometry"/>
                </mxCell>
                <mxCell id="Rlcjg0KeT8GsmHTueJET-2" value="+ sensorConnected() : bool&#10;- _greenValue : int&#10;- _redValue : int" style="text;strokeColor=none;fillColor=none;align=left;verticalAlign=top;spacingLeft=4;spacingRight=4;overflow=hidden;rotatable=0;points=[[0,0.5],[1,0.5]];portConstraint=eastwest;" parent="Rlcjg0KeT8GsmHTueJET-1" vertex="1">
                    <mxGeometry y="26" width="220" height="54" as="geometry"/>
                </mxCell>
                <mxCell id="Rlcjg0KeT8GsmHTueJET-3" value="" style="line;strokeWidth=1;fillColor=none;align=left;verticalAlign=middle;spacingTop=-1;spacingLeft=3;spacingRight=3;rotatable=0;labelPosition=right;points=[];portConstraint=eastwest;" parent="Rlcjg0KeT8GsmHTueJET-1" vertex="1">
                    <mxGeometry y="80" width="220" height="8" as="geometry"/>
                </mxCell>
                <mxCell id="Rlcjg0KeT8GsmHTueJET-4" value="- getGreenValue()&#10;- getRedValue()&#10;+ getColor(): string" style="text;strokeColor=none;fillColor=none;align=left;verticalAlign=top;spacingLeft=4;spacingRight=4;overflow=hidden;rotatable=0;points=[[0,0.5],[1,0.5]];portConstraint=eastwest;" parent="Rlcjg0KeT8GsmHTueJET-1" vertex="1">
                    <mxGeometry y="88" width="220" height="70" as="geometry"/>
                </mxCell>
            </root>
        </mxGraphModel>
    </diagram>
</mxfile>